<svg width="216" height="90" viewBox="0 0 216 90" fill="none" xmlns="http://www.w3.org/2000/svg">
<path d="M35.8496 50.9053C42.4561 50.9053 48.6221 46.2207 48.6221 39.9346V27.6826L48.3418 1.45703L64.8379 1.53711L65.1182 27.8027V40.5352C65.1182 47.7822 62.3955 54.0283 57.0303 59.1133C51.3447 64.0381 44.2178 66.6006 35.9697 66.6807H35.4492C29.083 66.6406 23.8779 65.0791 19.4336 61.9561L18.3525 61.2354L26.4004 47.3018L27.6816 48.3828C29.8037 50.0244 32.2861 50.9053 35.5693 50.9053H35.8496Z" fill="#0AB7DD"/>
<path d="M107.319 0.936523L107.359 1.09668C117.729 1.37695 126.138 5.74121 131.863 11.0664L132.864 12.0273L121.053 23.2783L119.972 22.2773C116.088 18.6738 111.604 16.9121 106.358 16.9121C100.993 16.9121 96.5488 18.5137 92.7852 21.877C88.9414 25.2002 87.0996 29.124 87.0996 33.7686C87.0996 38.4531 88.9414 42.377 92.7852 45.7002C96.5088 49.0234 100.993 50.665 106.358 50.665C113.485 50.665 119.451 47.1016 122.614 42.6572H104.116V28.4033H141.513L141.593 29.6445C142.554 41.8164 138.35 50.585 131.783 56.8711C124.696 63.2773 116.128 66.5205 106.238 66.5205C96.2686 66.5205 87.7002 63.2773 80.7734 56.9111C74.0869 50.625 70.7236 42.8174 70.7236 33.7686C70.7236 24.8398 74.0869 17.0322 80.7734 10.626C87.7402 4.21973 96.3086 0.936523 106.238 0.936523H107.319Z" fill="#0AB7DD"/>
<path d="M145.797 17.1123V1.45703H197.647L171.422 50.9854H196.807V66H144.956L171.182 17.1123H145.797Z" fill="#0AB7DD"/>
<path d="M3.98438 83.2061H1.55273V82.5908H3.98438C4.49219 82.5908 4.9043 82.5088 5.2207 82.3447C5.54102 82.1768 5.77344 81.9502 5.91797 81.665C6.06641 81.3799 6.14062 81.0596 6.14062 80.7041C6.14062 80.3564 6.06641 80.0361 5.91797 79.7432C5.77344 79.4502 5.54102 79.2158 5.2207 79.04C4.9043 78.8604 4.49219 78.7705 3.98438 78.7705H1.80469V86.6807H1.08398V78.1494H3.98438C4.60938 78.1494 5.13477 78.2568 5.56055 78.4717C5.99023 78.6865 6.31445 78.9854 6.5332 79.3682C6.75195 79.751 6.86133 80.1924 6.86133 80.6924C6.86133 81.2158 6.75195 81.667 6.5332 82.0459C6.31445 82.4209 5.99219 82.708 5.56641 82.9072C5.14062 83.1064 4.61328 83.2061 3.98438 83.2061ZM14.7773 81.958V82.8721C14.7773 83.4697 14.6992 84.0107 14.543 84.4951C14.3906 84.9756 14.168 85.3877 13.875 85.7314C13.5859 86.0752 13.2383 86.3389 12.832 86.5225C12.4258 86.7061 11.9688 86.7979 11.4609 86.7979C10.9648 86.7979 10.5117 86.7061 10.1016 86.5225C9.69531 86.3389 9.3457 86.0752 9.05273 85.7314C8.75977 85.3877 8.5332 84.9756 8.37305 84.4951C8.21289 84.0107 8.13281 83.4697 8.13281 82.8721V81.958C8.13281 81.3604 8.21094 80.8213 8.36719 80.3408C8.52734 79.8564 8.75391 79.4424 9.04688 79.0986C9.33984 78.7549 9.68945 78.4912 10.0957 78.3076C10.502 78.124 10.9531 78.0322 11.4492 78.0322C11.957 78.0322 12.4141 78.124 12.8203 78.3076C13.2266 78.4912 13.5762 78.7549 13.8691 79.0986C14.1621 79.4424 14.3867 79.8564 14.543 80.3408C14.6992 80.8213 14.7773 81.3604 14.7773 81.958ZM14.0625 82.8721V81.9463C14.0625 81.4424 14.0039 80.9893 13.8867 80.5869C13.7734 80.1846 13.6035 79.8408 13.377 79.5557C13.1543 79.2705 12.8809 79.0518 12.5566 78.8994C12.2324 78.7471 11.8633 78.6709 11.4492 78.6709C11.0469 78.6709 10.6855 78.7471 10.3652 78.8994C10.0449 79.0518 9.77148 79.2705 9.54492 79.5557C9.32227 79.8408 9.15039 80.1846 9.0293 80.5869C8.91211 80.9893 8.85352 81.4424 8.85352 81.9463V82.8721C8.85352 83.3799 8.91211 83.8369 9.0293 84.2432C9.15039 84.6455 9.32422 84.9912 9.55078 85.2803C9.77734 85.5654 10.0508 85.7842 10.3711 85.9365C10.6953 86.0889 11.0586 86.165 11.4609 86.165C11.8789 86.165 12.248 86.0889 12.5684 85.9365C12.8887 85.7842 13.1602 85.5654 13.3828 85.2803C13.6055 84.9912 13.7734 84.6455 13.8867 84.2432C14.0039 83.8369 14.0625 83.3799 14.0625 82.8721ZM16.582 78.1494H19.3535C19.9434 78.1494 20.4551 78.2451 20.8887 78.4365C21.3223 78.6279 21.6562 78.9111 21.8906 79.2861C22.1289 79.6572 22.248 80.1143 22.248 80.6572C22.248 81.0596 22.1621 81.4248 21.9902 81.7529C21.8223 82.0811 21.5898 82.3564 21.293 82.5791C20.9961 82.7979 20.6523 82.9482 20.2617 83.0303L20.0098 83.124H17.0508L17.0391 82.5088H19.5176C19.9629 82.5088 20.334 82.4229 20.6309 82.251C20.9277 82.0791 21.1504 81.8525 21.2988 81.5713C21.4512 81.2861 21.5273 80.9814 21.5273 80.6572C21.5273 80.2705 21.4434 79.9365 21.2754 79.6553C21.1113 79.3701 20.8672 79.1514 20.543 78.999C20.2188 78.8467 19.8223 78.7705 19.3535 78.7705H17.3027V86.6807H16.582V78.1494ZM21.8496 86.6807L19.6406 82.8662L20.4141 82.8604L22.6172 86.6045V86.6807H21.8496ZM26.6191 78.1494V86.6807H25.9043V78.1494H26.6191ZM29.543 78.1494V78.7705H22.9863V78.1494H29.543ZM31.6523 78.1494V86.6807H30.9316V78.1494H31.6523ZM35.625 82.0752V82.6963H31.4121V82.0752H35.625ZM36.2168 78.1494V78.7705H31.4121V78.1494H36.2168ZM43.9805 81.958V82.8721C43.9805 83.4697 43.9023 84.0107 43.7461 84.4951C43.5938 84.9756 43.3711 85.3877 43.0781 85.7314C42.7891 86.0752 42.4414 86.3389 42.0352 86.5225C41.6289 86.7061 41.1719 86.7979 40.6641 86.7979C40.168 86.7979 39.7148 86.7061 39.3047 86.5225C38.8984 86.3389 38.5488 86.0752 38.2559 85.7314C37.9629 85.3877 37.7363 84.9756 37.5762 84.4951C37.416 84.0107 37.3359 83.4697 37.3359 82.8721V81.958C37.3359 81.3604 37.4141 80.8213 37.5703 80.3408C37.7305 79.8564 37.957 79.4424 38.25 79.0986C38.543 78.7549 38.8926 78.4912 39.2988 78.3076C39.7051 78.124 40.1562 78.0322 40.6523 78.0322C41.1602 78.0322 41.6172 78.124 42.0234 78.3076C42.4297 78.4912 42.7793 78.7549 43.0723 79.0986C43.3652 79.4424 43.5898 79.8564 43.7461 80.3408C43.9023 80.8213 43.9805 81.3604 43.9805 81.958ZM43.2656 82.8721V81.9463C43.2656 81.4424 43.207 80.9893 43.0898 80.5869C42.9766 80.1846 42.8066 79.8408 42.5801 79.5557C42.3574 79.2705 42.084 79.0518 41.7598 78.8994C41.4355 78.7471 41.0664 78.6709 40.6523 78.6709C40.25 78.6709 39.8887 78.7471 39.5684 78.8994C39.248 79.0518 38.9746 79.2705 38.748 79.5557C38.5254 79.8408 38.3535 80.1846 38.2324 80.5869C38.1152 80.9893 38.0566 81.4424 38.0566 81.9463V82.8721C38.0566 83.3799 38.1152 83.8369 38.2324 84.2432C38.3535 84.6455 38.5273 84.9912 38.7539 85.2803C38.9805 85.5654 39.2539 85.7842 39.5742 85.9365C39.8984 86.0889 40.2617 86.165 40.6641 86.165C41.082 86.165 41.4512 86.0889 41.7715 85.9365C42.0918 85.7842 42.3633 85.5654 42.5859 85.2803C42.8086 84.9912 42.9766 84.6455 43.0898 84.2432C43.207 83.8369 43.2656 83.3799 43.2656 82.8721ZM50.7363 86.0654V86.6807H46.3125V86.0654H50.7363ZM46.5234 78.1494V86.6807H45.8027V78.1494H46.5234ZM53.0098 78.1494V86.6807H52.2891V78.1494H53.0098ZM61.6289 81.958V82.8721C61.6289 83.4697 61.5508 84.0107 61.3945 84.4951C61.2422 84.9756 61.0195 85.3877 60.7266 85.7314C60.4375 86.0752 60.0898 86.3389 59.6836 86.5225C59.2773 86.7061 58.8203 86.7979 58.3125 86.7979C57.8164 86.7979 57.3633 86.7061 56.9531 86.5225C56.5469 86.3389 56.1973 86.0752 55.9043 85.7314C55.6113 85.3877 55.3848 84.9756 55.2246 84.4951C55.0645 84.0107 54.9844 83.4697 54.9844 82.8721V81.958C54.9844 81.3604 55.0625 80.8213 55.2188 80.3408C55.3789 79.8564 55.6055 79.4424 55.8984 79.0986C56.1914 78.7549 56.541 78.4912 56.9473 78.3076C57.3535 78.124 57.8047 78.0322 58.3008 78.0322C58.8086 78.0322 59.2656 78.124 59.6719 78.3076C60.0781 78.4912 60.4277 78.7549 60.7207 79.0986C61.0137 79.4424 61.2383 79.8564 61.3945 80.3408C61.5508 80.8213 61.6289 81.3604 61.6289 81.958ZM60.9141 82.8721V81.9463C60.9141 81.4424 60.8555 80.9893 60.7383 80.5869C60.625 80.1846 60.4551 79.8408 60.2285 79.5557C60.0059 79.2705 59.7324 79.0518 59.4082 78.8994C59.084 78.7471 58.7148 78.6709 58.3008 78.6709C57.8984 78.6709 57.5371 78.7471 57.2168 78.8994C56.8965 79.0518 56.623 79.2705 56.3965 79.5557C56.1738 79.8408 56.002 80.1846 55.8809 80.5869C55.7637 80.9893 55.7051 81.4424 55.7051 81.9463V82.8721C55.7051 83.3799 55.7637 83.8369 55.8809 84.2432C56.002 84.6455 56.1758 84.9912 56.4023 85.2803C56.6289 85.5654 56.9023 85.7842 57.2227 85.9365C57.5469 86.0889 57.9102 86.165 58.3125 86.165C58.7305 86.165 59.0996 86.0889 59.4199 85.9365C59.7402 85.7842 60.0117 85.5654 60.2344 85.2803C60.457 84.9912 60.625 84.6455 60.7383 84.2432C60.8555 83.8369 60.9141 83.3799 60.9141 82.8721ZM68.7129 86.6807H66.7793L66.791 86.0654H68.7129C69.3262 86.0654 69.8535 85.9287 70.2949 85.6553C70.7402 85.3779 71.084 84.9951 71.3262 84.5068C71.5684 84.0186 71.6895 83.4521 71.6895 82.8076V82.0107C71.6895 81.5186 71.6191 81.0732 71.4785 80.6748C71.3418 80.2764 71.1445 79.9365 70.8867 79.6553C70.6289 79.3701 70.3203 79.1514 69.9609 78.999C69.6055 78.8467 69.207 78.7705 68.7656 78.7705H66.7441V78.1494H68.7656C69.2969 78.1494 69.7832 78.2412 70.2246 78.4248C70.6699 78.6045 71.0547 78.8662 71.3789 79.21C71.707 79.5498 71.959 79.958 72.1348 80.4346C72.3145 80.9111 72.4043 81.4424 72.4043 82.0283V82.8076C72.4043 83.3936 72.3145 83.9248 72.1348 84.4014C71.959 84.8779 71.707 85.2861 71.3789 85.626C71.0508 85.9658 70.6621 86.2275 70.2129 86.4111C69.7637 86.5908 69.2637 86.6807 68.7129 86.6807ZM67.1016 78.1494V86.6807H66.3809V78.1494H67.1016ZM79.5469 86.0654V86.6807H74.748V86.0654H79.5469ZM74.9648 78.1494V86.6807H74.2441V78.1494H74.9648ZM78.9492 81.9756V82.5908H74.748V81.9756H78.9492ZM79.5176 78.1494V78.7705H74.748V78.1494H79.5176ZM87.7734 84.1377V78.1494H88.4941V84.1377C88.4941 84.7119 88.3809 85.1963 88.1543 85.5908C87.9316 85.9854 87.627 86.2861 87.2402 86.4932C86.8535 86.6963 86.4121 86.7979 85.916 86.7979C85.4082 86.7979 84.959 86.708 84.5684 86.5283C84.1816 86.3486 83.8809 86.0771 83.666 85.7139C83.4512 85.3467 83.3438 84.8838 83.3438 84.3252H84.0645C84.0645 84.7354 84.1367 85.0791 84.2812 85.3564C84.4297 85.6299 84.6426 85.8369 84.9199 85.9775C85.1973 86.1143 85.5293 86.1826 85.916 86.1826C86.2637 86.1826 86.5762 86.1064 86.8535 85.9541C87.1348 85.7979 87.3574 85.5693 87.5215 85.2686C87.6895 84.9639 87.7734 84.5869 87.7734 84.1377ZM93.2871 78.6592L90.334 86.6807H89.584L92.8066 78.1494H93.3281L93.2871 78.6592ZM95.9707 86.6807L93.0117 78.6592L92.9707 78.1494H93.4922L96.7207 86.6807H95.9707ZM95.4434 83.6689V84.29H90.9141V83.6689H95.4434ZM100.137 85.6201L102.826 78.1494H103.611L100.436 86.6807H99.8555L100.137 85.6201ZM97.3594 78.1494L100.037 85.6201L100.33 86.6807H99.7441L96.5742 78.1494H97.3594ZM105.756 78.1494V86.6807H105.035V78.1494H105.756ZM113.379 86.0654V86.6807H108.58V86.0654H113.379ZM108.797 78.1494V86.6807H108.076V78.1494H108.797ZM112.781 81.9756V82.5908H108.58V81.9756H112.781ZM113.35 78.1494V78.7705H108.58V78.1494H113.35ZM114.891 78.1494H117.662C118.252 78.1494 118.764 78.2451 119.197 78.4365C119.631 78.6279 119.965 78.9111 120.199 79.2861C120.438 79.6572 120.557 80.1143 120.557 80.6572C120.557 81.0596 120.471 81.4248 120.299 81.7529C120.131 82.0811 119.898 82.3564 119.602 82.5791C119.305 82.7979 118.961 82.9482 118.57 83.0303L118.318 83.124H115.359L115.348 82.5088H117.826C118.271 82.5088 118.643 82.4229 118.939 82.251C119.236 82.0791 119.459 81.8525 119.607 81.5713C119.76 81.2861 119.836 80.9814 119.836 80.6572C119.836 80.2705 119.752 79.9365 119.584 79.6553C119.42 79.3701 119.176 79.1514 118.852 78.999C118.527 78.8467 118.131 78.7705 117.662 78.7705H115.611V86.6807H114.891V78.1494ZM120.158 86.6807L117.949 82.8662L118.723 82.8604L120.926 86.6045V86.6807H120.158ZM131.619 82.626V85.6611C131.521 85.8057 131.354 85.9658 131.115 86.1416C130.877 86.3174 130.557 86.4717 130.154 86.6045C129.752 86.7334 129.252 86.7979 128.654 86.7979C128.154 86.7979 127.695 86.708 127.277 86.5283C126.859 86.3486 126.496 86.0889 126.188 85.749C125.883 85.4053 125.646 84.9932 125.479 84.5127C125.314 84.0322 125.232 83.4932 125.232 82.8955V81.8643C125.232 81.2783 125.309 80.751 125.461 80.2822C125.613 79.8096 125.834 79.4053 126.123 79.0693C126.412 78.7334 126.76 78.4775 127.166 78.3018C127.576 78.1221 128.035 78.0322 128.543 78.0322C129.176 78.0322 129.709 78.1416 130.143 78.3604C130.576 78.5791 130.914 78.8799 131.156 79.2627C131.402 79.6416 131.555 80.0713 131.613 80.5518H130.893C130.838 80.2119 130.725 79.8994 130.553 79.6143C130.381 79.3252 130.131 79.0928 129.803 78.917C129.479 78.7412 129.059 78.6533 128.543 78.6533C128.129 78.6533 127.76 78.7295 127.436 78.8818C127.115 79.0342 126.846 79.251 126.627 79.5322C126.408 79.8135 126.242 80.1514 126.129 80.5459C126.016 80.9365 125.959 81.3721 125.959 81.8525V82.8955C125.959 83.3955 126.021 83.8467 126.146 84.249C126.275 84.6514 126.459 84.9971 126.697 85.2861C126.936 85.5752 127.221 85.7979 127.553 85.9541C127.885 86.1064 128.254 86.1826 128.66 86.1826C129.094 86.1826 129.463 86.1416 129.768 86.0596C130.072 85.9775 130.316 85.8799 130.5 85.7666C130.688 85.6494 130.822 85.54 130.904 85.4385V83.2412H128.613V82.626H131.619ZM133.664 78.1494H136.436C137.025 78.1494 137.537 78.2451 137.971 78.4365C138.404 78.6279 138.738 78.9111 138.973 79.2861C139.211 79.6572 139.33 80.1143 139.33 80.6572C139.33 81.0596 139.244 81.4248 139.072 81.7529C138.904 82.0811 138.672 82.3564 138.375 82.5791C138.078 82.7979 137.734 82.9482 137.344 83.0303L137.092 83.124H134.133L134.121 82.5088H136.6C137.045 82.5088 137.416 82.4229 137.713 82.251C138.01 82.0791 138.232 81.8525 138.381 81.5713C138.533 81.2861 138.609 80.9814 138.609 80.6572C138.609 80.2705 138.525 79.9365 138.357 79.6553C138.193 79.3701 137.949 79.1514 137.625 78.999C137.301 78.8467 136.904 78.7705 136.436 78.7705H134.385V86.6807H133.664V78.1494ZM138.932 86.6807L136.723 82.8662L137.496 82.8604L139.699 86.6045V86.6807H138.932ZM144.111 78.6592L141.158 86.6807H140.408L143.631 78.1494H144.152L144.111 78.6592ZM146.795 86.6807L143.836 78.6592L143.795 78.1494H144.316L147.545 86.6807H146.795ZM146.268 83.6689V84.29H141.738V83.6689H146.268ZM155.162 78.1494V86.6807H154.436L149.531 79.3916V86.6807H148.811V78.1494H149.531L154.447 85.4385V78.1494H155.162ZM159.674 86.6807H157.74L157.752 86.0654H159.674C160.287 86.0654 160.814 85.9287 161.256 85.6553C161.701 85.3779 162.045 84.9951 162.287 84.5068C162.529 84.0186 162.65 83.4521 162.65 82.8076V82.0107C162.65 81.5186 162.58 81.0732 162.439 80.6748C162.303 80.2764 162.105 79.9365 161.848 79.6553C161.59 79.3701 161.281 79.1514 160.922 78.999C160.566 78.8467 160.168 78.7705 159.727 78.7705H157.705V78.1494H159.727C160.258 78.1494 160.744 78.2412 161.186 78.4248C161.631 78.6045 162.016 78.8662 162.34 79.21C162.668 79.5498 162.92 79.958 163.096 80.4346C163.275 80.9111 163.365 81.4424 163.365 82.0283V82.8076C163.365 83.3936 163.275 83.9248 163.096 84.4014C162.92 84.8779 162.668 85.2861 162.34 85.626C162.012 85.9658 161.623 86.2275 161.174 86.4111C160.725 86.5908 160.225 86.6807 159.674 86.6807ZM158.062 78.1494V86.6807H157.342V78.1494H158.062ZM167.877 78.6592L164.924 86.6807H164.174L167.396 78.1494H167.918L167.877 78.6592ZM170.561 86.6807L167.602 78.6592L167.561 78.1494H168.082L171.311 86.6807H170.561ZM170.033 83.6689V84.29H165.504V83.6689H170.033ZM181.09 86.0654V86.6807H175.213V86.0654H181.09ZM180.902 78.6709L175.406 86.6807H174.955V86.1299L180.439 78.1494H180.902V78.6709ZM180.586 78.1494V78.7646H175.107V78.1494H180.586ZM185.572 78.6592L182.619 86.6807H181.869L185.092 78.1494H185.613L185.572 78.6592ZM188.256 86.6807L185.297 78.6592L185.256 78.1494H185.777L189.006 86.6807H188.256ZM187.729 83.6689V84.29H183.199V83.6689H187.729ZM193.172 83.2061H190.74V82.5908H193.172C193.68 82.5908 194.092 82.5088 194.408 82.3447C194.729 82.1768 194.961 81.9502 195.105 81.665C195.254 81.3799 195.328 81.0596 195.328 80.7041C195.328 80.3564 195.254 80.0361 195.105 79.7432C194.961 79.4502 194.729 79.2158 194.408 79.04C194.092 78.8604 193.68 78.7705 193.172 78.7705H190.992V86.6807H190.271V78.1494H193.172C193.797 78.1494 194.322 78.2568 194.748 78.4717C195.178 78.6865 195.502 78.9854 195.721 79.3682C195.939 79.751 196.049 80.1924 196.049 80.6924C196.049 81.2158 195.939 81.667 195.721 82.0459C195.502 82.4209 195.18 82.708 194.754 82.9072C194.328 83.1064 193.801 83.2061 193.172 83.2061ZM198.545 78.1494V86.6807H197.824V78.1494H198.545ZM206.18 84.0205H206.9C206.842 84.5947 206.684 85.0908 206.426 85.5088C206.168 85.9229 205.816 86.2412 205.371 86.4639C204.926 86.6865 204.389 86.7979 203.76 86.7979C203.275 86.7979 202.836 86.7061 202.441 86.5225C202.051 86.3389 201.715 86.0791 201.434 85.7432C201.152 85.4033 200.936 84.9971 200.783 84.5244C200.631 84.0518 200.555 83.5264 200.555 82.9482V81.8818C200.555 81.3037 200.631 80.7803 200.783 80.3115C200.936 79.8389 201.154 79.4326 201.439 79.0928C201.725 78.7529 202.066 78.4912 202.465 78.3076C202.863 78.124 203.312 78.0322 203.812 78.0322C204.418 78.0322 204.941 78.1436 205.383 78.3662C205.824 78.585 206.172 78.9014 206.426 79.3154C206.684 79.7295 206.842 80.2295 206.9 80.8154H206.18C206.125 80.3545 206.004 79.9639 205.816 79.6436C205.629 79.3232 205.369 79.0791 205.037 78.9111C204.709 78.7393 204.301 78.6533 203.812 78.6533C203.414 78.6533 203.059 78.7295 202.746 78.8818C202.434 79.0342 202.168 79.2529 201.949 79.5381C201.73 79.8193 201.562 80.1572 201.445 80.5518C201.332 80.9463 201.275 81.3857 201.275 81.8701V82.9482C201.275 83.417 201.33 83.8486 201.439 84.2432C201.549 84.6377 201.709 84.9795 201.92 85.2686C202.135 85.5576 202.396 85.7822 202.705 85.9424C203.014 86.1025 203.365 86.1826 203.76 86.1826C204.264 86.1826 204.684 86.1025 205.02 85.9424C205.359 85.7783 205.623 85.5361 205.811 85.2158C205.998 84.8955 206.121 84.4971 206.18 84.0205ZM214.957 81.958V82.8721C214.957 83.4697 214.879 84.0107 214.723 84.4951C214.57 84.9756 214.348 85.3877 214.055 85.7314C213.766 86.0752 213.418 86.3389 213.012 86.5225C212.605 86.7061 212.148 86.7979 211.641 86.7979C211.145 86.7979 210.691 86.7061 210.281 86.5225C209.875 86.3389 209.525 86.0752 209.232 85.7314C208.939 85.3877 208.713 84.9756 208.553 84.4951C208.393 84.0107 208.312 83.4697 208.312 82.8721V81.958C208.312 81.3604 208.391 80.8213 208.547 80.3408C208.707 79.8564 208.934 79.4424 209.227 79.0986C209.52 78.7549 209.869 78.4912 210.275 78.3076C210.682 78.124 211.133 78.0322 211.629 78.0322C212.137 78.0322 212.594 78.124 213 78.3076C213.406 78.4912 213.756 78.7549 214.049 79.0986C214.342 79.4424 214.566 79.8564 214.723 80.3408C214.879 80.8213 214.957 81.3604 214.957 81.958ZM214.242 82.8721V81.9463C214.242 81.4424 214.184 80.9893 214.066 80.5869C213.953 80.1846 213.783 79.8408 213.557 79.5557C213.334 79.2705 213.061 79.0518 212.736 78.8994C212.412 78.7471 212.043 78.6709 211.629 78.6709C211.227 78.6709 210.865 78.7471 210.545 78.8994C210.225 79.0518 209.951 79.2705 209.725 79.5557C209.502 79.8408 209.33 80.1846 209.209 80.5869C209.092 80.9893 209.033 81.4424 209.033 81.9463V82.8721C209.033 83.3799 209.092 83.8369 209.209 84.2432C209.33 84.6455 209.504 84.9912 209.73 85.2803C209.957 85.5654 210.23 85.7842 210.551 85.9365C210.875 86.0889 211.238 86.165 211.641 86.165C212.059 86.165 212.428 86.0889 212.748 85.9365C213.068 85.7842 213.34 85.5654 213.562 85.2803C213.785 84.9912 213.953 84.6455 214.066 84.2432C214.184 83.8369 214.242 83.3799 214.242 82.8721Z" fill="black"/>
</svg>
